<?xml version="1.0" encoding="utf-8"?>
<!-- Generator: Adobe Illustrator 18.0.0, SVG Export Plug-In . SVG Version: 6.00 Build 0)  -->
<!DOCTYPE svg PUBLIC "-//W3C//DTD SVG 1.1//EN" "http://www.w3.org/Graphics/SVG/1.1/DTD/svg11.dtd">
<svg version="1.1" id="Layer_1" xmlns="http://www.w3.org/2000/svg" xmlns:xlink="http://www.w3.org/1999/xlink" x="0px" y="0px"
	 viewBox="0 64 1024 768" enable-background="new 0 64 1024 768" xml:space="preserve">
<path fill="#D3B52A" d="M896,192H640v-66c0-34.2-27.8-62-62-62H446c-34.2,0-62,27.8-62,62v66H128c-35.3,0-64,28.7-64,64v512
	c0,35.3,28.7,64,64,64h768c35.3,0,64-28.7,64-64V256C960,220.7,931.3,192,896,192z M448,144c0-8.8,7.2-16,16-16h96
	c8.8,0,16,7.2,16,16v48H448V144z M896,512H576v64H448v-64H128V256h64v192h640V256h64V512z"/>
</svg>
