<?xml version="1.0" encoding="utf-8"?>
<!-- Generator: Adobe Illustrator 18.0.0, SVG Export Plug-In . SVG Version: 6.00 Build 0)  -->
<!DOCTYPE svg PUBLIC "-//W3C//DTD SVG 1.1//EN" "http://www.w3.org/Graphics/SVG/1.1/DTD/svg11.dtd">
<svg version="1.1" id="Layer_1" xmlns="http://www.w3.org/2000/svg" xmlns:xlink="http://www.w3.org/1999/xlink" x="0px" y="0px"
	 viewBox="0 0 325.4 117.7" enable-background="new 0 0 325.4 117.7" xml:space="preserve">
<path fill="#D4B52B" d="M318.9,0H6.6C2.9,0,0,2.9,0,6.6v79.7c0,3.6,2.9,6.6,6.6,6.6h156.2h13.1l26.2,24.9V92.8h116.8
	c3.6,0,6.6-2.9,6.6-6.6V6.6C325.4,2.9,322.5,0,318.9,0z"/>
<g>
	<path fill="#FFFFFF" d="M52.9,29.9v-7.3h20.9v7.3h-7.1v40.9h-6.6V29.9H52.9z"/>
	<path fill="#FFFFFF" d="M76.6,70.8V22.7h6.6v19.9h5.5V22.7h6.6v48.1h-6.6V49.8h-5.5v20.9H76.6z"/>
	<path fill="#FFFFFF" d="M99.5,70.8l6.7-48.1h9.2l6.7,48.1h-6.3l-1.3-9.8h-6.8l-1.3,9.8H99.5z M108.7,53.5h4.8l-2-15.2l-0.2-1.3
		l-0.4,0l-0.2,1.3L108.7,53.5z"/>
	<path fill="#FFFFFF" d="M125.9,70.8V22.7h6.4l6.8,25.1l0.6,2.2h0.4v-2.2v-25h6.6v48.1h-6.4l-6.9-25.1l-0.6-2.2h-0.3v2.2v25.1H125.9
		z"/>
	<path fill="#FFFFFF" d="M151.7,70.8V22.7h6.6v16v0.8l0.1-0.2l0.3-0.8l5.9-15.8h7l-6.3,14.6l7.6,33.6h-7l-4.9-21l-0.2-1l-0.6,0
		l-0.4,1l-1.7,3.9v17H151.7z"/>
	<path fill="#FFFFFF" d="M184.2,22.7h6.9l3.5,15.4l0.1,0.4h0.1L195,38l3.4-15.4h6.6L198,50.3v20.5h-6.6V50.3L184.2,22.7z"/>
	<path fill="#FFFFFF" d="M208.3,60.9V32.5c0-0.3,0-0.6,0.1-1.1c0-0.5,0.2-1.3,0.5-2.5c0.3-1.2,0.7-2.3,1.3-3.2
		c0.6-0.9,1.4-1.7,2.7-2.5c1.2-0.7,2.7-1.1,4.5-1.1c1.8,0,3.3,0.4,4.5,1.1c1.2,0.7,2.1,1.6,2.7,2.6c0.6,1,1,2,1.3,3
		c0.3,1,0.5,1.9,0.5,2.7l0.1,1.1v28.4c0,0.3,0,0.6-0.1,1.1c0,0.5-0.2,1.3-0.5,2.5c-0.3,1.2-0.7,2.3-1.3,3.2
		c-0.6,0.9-1.4,1.7-2.7,2.5s-2.7,1.1-4.5,1.1c-1.8,0-3.3-0.4-4.5-1.1c-1.2-0.7-2.1-1.6-2.7-2.6c-0.6-1-1-2-1.3-3.1s-0.5-1.9-0.5-2.6
		L208.3,60.9z M214.9,61.4c0,0.3,0,0.6,0,1c0,0.4,0.2,1,0.6,1.6c0.4,0.7,1,1,1.7,1s1.3-0.3,1.7-0.9c0.4-0.6,0.6-1.2,0.6-1.9l0.1-0.9
		V32c0-0.3,0-0.6,0-1s-0.2-1-0.6-1.6c-0.4-0.7-1-1-1.7-1s-1.3,0.3-1.7,0.9c-0.4,0.6-0.6,1.2-0.6,1.8l-0.1,1V61.4z"/>
	<path fill="#FFFFFF" d="M231.8,60.9V22.7h6.6v38.8c0,0.3,0,0.6,0,1s0.2,0.9,0.6,1.6c0.4,0.7,1,1,1.7,1s1.3-0.3,1.7-0.9
		c0.4-0.6,0.6-1.2,0.6-1.8l0.1-0.8V22.7h6.6v38.2c0,0.3,0,0.6-0.1,1.1s-0.2,1.3-0.5,2.5c-0.3,1.2-0.7,2.3-1.3,3.2
		c-0.5,0.9-1.4,1.7-2.6,2.5s-2.7,1.1-4.5,1.1s-3.3-0.4-4.5-1.1c-1.2-0.7-2.1-1.6-2.6-2.6s-1-2-1.3-3.1c-0.3-1-0.5-1.9-0.5-2.6
		L231.8,60.9z"/>
	<path fill="#FFFFFF" d="M255.6,22.7h7.4l-1.7,35.1h-4.1L255.6,22.7z M256,70.8v-7.3h6.6v7.3H256z"/>
</g>
</svg>
